<svg width="8" height="13" viewBox="0 0 8 13" fill="none" xmlns="http://www.w3.org/2000/svg">
<path d="M7.33333 1.33337C7.33333 1.24496 7.29821 1.16018 7.2357 1.09767C7.17319 1.03515 7.08841 1.00004 7 1.00004H5.33333C4.49408 0.95823 3.6724 1.2503 3.04781 1.81242C2.42323 2.37455 2.04652 3.16103 2 4.00004V5.80004H0.333333C0.244928 5.80004 0.160143 5.83516 0.0976311 5.89767C0.035119 5.96018 0 6.04496 0 6.13337V7.8667C0 7.95511 0.035119 8.03989 0.0976311 8.1024C0.160143 8.16492 0.244928 8.20004 0.333333 8.20004H2V12.6667C2 12.7551 2.03512 12.8399 2.09763 12.9024C2.16014 12.9649 2.24493 13 2.33333 13H4.33333C4.42174 13 4.50652 12.9649 4.56904 12.9024C4.63155 12.8399 4.66667 12.7551 4.66667 12.6667V8.20004H6.41333C6.48746 8.2011 6.55983 8.17742 6.61899 8.13275C6.67815 8.08808 6.72073 8.02496 6.74 7.95337L7.22 6.22004C7.23326 6.17078 7.23505 6.11914 7.22521 6.0691C7.21538 6.01905 7.19419 5.97192 7.16328 5.93135C7.13236 5.89078 7.09255 5.85784 7.04691 5.83507C7.00127 5.81231 6.95101 5.80032 6.9 5.80004H4.66667V4.00004C4.68325 3.83502 4.76074 3.68211 4.88402 3.57116C5.00729 3.46022 5.16749 3.3992 5.33333 3.40004H7C7.08841 3.40004 7.17319 3.36492 7.2357 3.3024C7.29821 3.23989 7.33333 3.15511 7.33333 3.0667V1.33337Z" fill="#3858FF"/>
</svg>
