<svg width="483" height="507" viewBox="0 0 483 507" fill="none" xmlns="http://www.w3.org/2000/svg">
<g opacity="0.3">
<path d="M84.4801 194.188C80.2226 193.095 77.0776 196.078 73.1421 199.197C68.2881 202.882 63.9197 210.547 54.224 193.321C50.6919 187.022 50.2978 176.521 42.4439 164.058C37.1189 155.629 20.4118 134.331 47.865 129.584C63.0725 126.955 85.1542 138.178 92.116 150.185C96.78 158.323 79.5244 165.574 88.2907 176.253C93.2393 182.511 99.0344 192.485 96.5504 195.76C94.23 198.803 88.5405 195.316 84.4801 194.188Z" stroke="white" stroke-width="0.5"/>
<path d="M105.926 145.359C112.47 153.78 94.6714 163.768 101.546 177.62C102.48 179.491 103.449 181.56 104.219 183.662C107.064 190.69 112.081 197.343 111.081 200.97C109.703 207.103 104.26 206.215 98.7567 206.151C92.8585 206.154 87.5405 209.512 80.723 210.081C72.2911 210.726 70.5246 218.145 59.3698 210.115C56.3582 207.993 53.1031 209.166 49.9247 201.382C47.4484 195.306 44.8806 195.75 43.1258 189.143C40.8326 180.597 43.6277 174.422 32.2269 163.792C18.6718 151.298 12.5005 118.015 43.9264 116.241C44.9481 116.268 45.9698 116.294 47.0256 116.518C58.2721 118.029 66.0197 124.007 86.5754 133.461C94.2393 136.607 101.741 139.985 105.926 145.359Z" stroke="white" stroke-width="0.5"/>
<path d="M119.539 140.567C127.997 149.47 109.294 162.459 114.569 178.823C115.375 181.123 116.016 183.655 116.658 186.186C118.72 194.569 125.849 201.67 125.811 206.148C125.606 215.533 120.177 217.081 113.033 218.113C105.657 218.982 97.472 222.226 88.5009 220.932C75.1087 218.775 75.5982 228.65 59.2938 219.071C54.9944 216.562 50.311 221.234 46.0536 209.571C42.6014 200.209 38.2446 204.418 36.0461 195.245C33.0082 183.575 40.5169 177.603 22.2411 163.689C0.652863 147.096 5.15548 102.619 40.2205 103.061C41.6371 103.019 42.9241 103.407 44.2119 103.793C57.0192 107.271 60.6002 116.204 93.2673 128.645C102.778 131.879 113.569 134.282 119.539 140.567Z" stroke="white" stroke-width="0.5"/>
<path d="M133.349 135.74C143.327 145.193 125.068 160.748 127.593 180.027C127.874 182.824 128.387 185.784 128.899 188.744C130.179 198.482 138.432 206.202 140.145 211.393C144.273 223.484 135.898 227.981 127.079 229.912C118.259 231.843 107.37 234.742 96.0136 231.422C77.7906 226.035 80.2094 238.829 58.7197 227.503C53.1325 224.607 47.0551 232.975 41.6852 217.237C37.2579 204.588 31.3433 212.725 28.4691 200.823C24.8842 185.996 36.9088 180.259 11.9218 162.831C-17.8967 142.173 -2.48903 86.6651 36.1795 89.1254C37.828 89.2471 39.347 89.7974 41.0638 90.3136C55.3978 95.559 54.8811 107.843 99.5922 122.877C111.514 127.116 125.56 128.346 133.349 135.74Z" stroke="white" stroke-width="0.5"/>
<path d="M146.962 130.947C158.458 140.951 139.064 159.345 140.651 181.428C140.803 184.654 140.989 188.077 141.175 191.5C141.706 202.79 152.268 210.923 154.71 216.802C160.605 232.042 151.618 238.881 141.355 241.874C131.093 244.869 117.499 247.422 103.791 242.271C80.9348 233.621 85.283 249.333 58.6088 236.262C51.9324 232.945 44.4609 245.009 37.7807 225.229C32.4108 209.491 24.674 221.194 21.1915 206.959C16.8619 189.009 33.832 183.636 1.9368 162.728C-35.9149 137.972 -9.79992 71.4655 32.4387 75.7481C34.5163 75.9985 36.2672 76.7124 38.0523 77.6231C53.9471 84.8342 49.332 100.469 106.087 118.095C120.053 122.388 137.387 122.643 146.962 130.947Z" stroke="white" stroke-width="0.5"/>
<path d="M160.574 126.154C173.822 136.872 153.653 157.839 153.675 182.631C153.698 186.286 153.523 189.975 153.579 193.827C153.329 206.472 166.397 214.984 169.208 221.815C176.834 240.009 167.501 249.549 155.598 253.64C143.892 257.696 127.758 259.673 111.502 252.727C83.8137 240.848 90.0913 259.478 58.2674 244.858C50.3025 241.153 41.4369 256.914 33.4464 233.093C27.1006 214.068 17.7719 229.502 13.6479 212.735C8.57429 191.662 30.258 186.49 -8.51217 162.299C-54.5933 133.478 -17.7028 56.3689 28.2689 62.2413C30.5443 62.4584 32.7583 63.4979 34.7754 64.5722C52.3948 73.5172 43.5176 92.7352 112.316 112.954C128.625 117.857 149.215 116.94 160.574 126.154Z" stroke="white" stroke-width="0.5"/>
<path d="M174.385 121.328C189.152 132.596 168.439 156.299 166.896 183.8C166.592 187.918 166.288 192.035 166.018 196.351C165.182 210.316 181.513 218.875 183.739 227.027C189.876 249.542 183.221 260.449 169.84 265.404C156.657 270.326 137.852 272.154 119.245 263.38C86.9237 248.237 94.9329 269.819 58.1223 253.419C48.8704 249.328 38.5766 268.587 29.5078 240.887C22.3831 218.542 11.1018 237.972 6.49909 218.443C0.87937 194.211 27.113 189.472 -18.3684 161.767C-72.4826 128.847 -25.0478 40.9717 24.6918 48.6324C27.3962 48.9781 29.6444 50.2152 32.0904 51.4182C51.2365 62.1321 38.098 84.932 119.335 107.675C137.361 113.095 161.042 111.236 174.385 121.328Z" stroke="white" stroke-width="0.5"/>
<path d="M187.997 116.535C204.283 128.354 183.225 154.758 179.756 185.236C179.323 189.782 178.693 194.362 178.096 199.14C176.478 214.461 195.316 223.399 198.107 232.469C206.01 258.135 198.941 271.349 183.954 277.599C169.327 283.583 148.015 285.032 126.86 274.462C89.9051 256.055 99.8777 280.753 57.8826 262.607C47.3429 258.128 35.6551 281.084 25.4738 249.308C17.3732 223.677 4.5007 246.837 -0.709411 224.973C-7.07388 197.619 24.0712 193.047 -28.3193 161.862C-90.6645 124.877 -32.2563 26.3651 21.0201 35.6497C23.9556 36.1582 26.6336 37.5247 29.1129 38.9254C49.9836 51.3733 32.4201 77.9868 125.83 102.893C145.899 108.367 172.87 105.533 187.997 116.535Z" stroke="white" stroke-width="0.5"/>
<path d="M201.842 111.906C219.681 124.472 198.046 153.415 193.012 186.603C192.252 191.612 191.492 196.621 190.569 201.862C188.168 218.537 209.316 227.889 212.672 237.878C222.342 266.693 214.696 282.446 198.23 289.561C181.963 296.642 158.11 297.514 134.604 285.115C93.0152 263.443 104.72 291.094 57.5405 271.202C45.6789 266.14 32.6311 292.988 21.3374 257.137C12.2608 228.219 -2.36645 255.341 -8.05522 230.715C-15.1303 200.434 20.6942 195.867 -38.5704 161.398C-109.146 120.349 -39.9962 11.0368 17.0473 22.1088C20.2148 22.7809 23.3218 24.2761 26.0673 26.0372C48.6617 40.2199 26.871 70.6129 132.29 97.9147C154.437 103.638 184.697 99.8293 201.842 111.906Z" stroke="white" stroke-width="0.5"/>
<path d="M215.454 107.113C234.813 120.23 212.634 151.909 206.036 187.806C205.147 193.244 203.863 198.75 202.974 204.189C199.79 222.218 223.41 231.753 227.367 242.857C238.605 274.857 230.742 292.883 212.472 301.326C194.761 309.469 168.402 309.961 142.15 295.801C95.9282 270.867 109.528 301.238 57.2325 279.995C44.0831 274.545 29.6072 304.894 17.2351 265.163C7.1826 232.959 -9.03657 263.811 -15.3669 236.654C-23.1859 203.25 17.3856 199.081 -48.5903 161.098C-127.198 115.95 -47.4708 -3.93115 13.2724 8.53379C16.8689 9.33451 19.9759 10.8305 23.1853 12.918C47.3065 28.8687 21.2878 63.0421 138.915 92.7042C163.207 99.0735 196.525 94.1258 215.454 107.113Z" stroke="white" stroke-width="0.5"/>
<path d="M229.265 102.286C250.177 116.15 227.455 150.566 219.094 189.207C217.844 194.91 216.464 201.043 215.249 206.944C211.317 226.527 237.213 236.277 241.735 248.299C254.739 283.449 246.298 304.014 226.552 313.322C207.363 322.331 178.497 322.443 149.731 306.686C98.8754 278.487 114.207 311.812 56.7267 288.823C42.2903 282.985 26.4203 317.03 12.7379 273.258C1.70949 237.766 -16.2993 272.384 -23.0734 242.661C-31.4394 206.099 13.8458 202.132 -59.2021 160.9C-146.041 111.687 -55.5373 -18.7967 8.93973 -4.74116C12.734 -3.97455 16.3042 -2.15219 19.5477 0.13213C45.3927 17.8176 14.9497 55.8047 144.784 87.8278C171.746 94.3451 208.353 88.4231 229.265 102.286Z" stroke="white" stroke-width="0.5"/>
<path d="M242.877 97.4945C265.309 111.909 242.044 149.06 232.117 190.411C230.541 196.577 228.999 202.942 227.491 209.503C222.776 230.439 251.179 240.57 256.07 253.545C270.839 291.845 261.985 314.717 240.597 325.121C219.965 335.193 188.395 334.96 157.244 317.176C101.754 285.713 118.817 321.99 56.3854 297.418C40.6612 291.194 23.3971 328.934 8.60146 281.087C-3.40289 242.309 -22.9687 280.854 -30.3851 248.6C-39.4951 208.916 10.5378 205.346 -69.2554 160.403C-164.127 107.091 -63.0453 -33.9614 5.16478 -18.3161C9.38811 -17.4201 13.1902 -15.4349 16.6998 -12.7902C44.2693 6.63006 9.40054 48.4308 151.408 82.6181C180.482 89.5827 219.983 82.7538 242.877 97.4945Z" stroke="white" stroke-width="0.5"/>
<path d="M256.688 92.6678C280.672 107.829 256.83 147.52 245.339 191.58C243.633 198.175 241.764 205.003 240.126 211.993C234.63 234.285 265.341 244.828 270.996 258.688C287.532 300.137 278.1 325.549 255.269 337.016C233.193 348.149 199.117 347.537 165.417 327.958C105.293 293.231 124.286 332.426 56.4715 306.143C39.4603 299.532 20.8021 340.968 4.89408 289.044C-8.0862 246.98 -29.441 289.29 -37.3019 254.47C-47.1566 211.663 7.58989 208.295 -78.8804 160.034C-181.982 102.658 -70.1242 -48.9975 1.81891 -31.7616C6.27419 -30.7027 10.3074 -28.5541 14.246 -25.7799C43.5401 -4.62564 4.44412 40.9546 158.461 77.5371C189.055 85.0521 231.811 77.0504 256.688 92.6678Z" stroke="white" stroke-width="0.5"/>
<path d="M270.3 87.8751C295.839 103.785 271.582 145.783 258.397 192.98C256.364 200.039 254.367 207.296 252.402 214.748C246.123 238.395 279.307 249.121 285.364 264.13C303.666 308.73 293.622 336.482 269.347 349.013C245.632 361.243 209.212 360.019 172.997 338.841C108.241 300.851 129 343.197 56.1985 315.133C37.8995 308.134 17.8123 353.071 0.825913 297.268C-12.9332 251.883 -36.077 297.957 -44.5795 260.606C-54.9803 214.641 4.47903 211.475 -89.0625 159.965C-200.198 98.4898 -77.7617 -63.7336 -2.08481 -44.9079C2.60243 -43.6855 7.0647 -41.4081 11.0374 -38.437C42.0561 -15.5481 -1.46498 33.8459 164.759 72.7894C197.593 80.3238 243.638 71.3469 270.3 87.8751Z" stroke="white" stroke-width="0.5"/>
<path d="M284.111 83.0483C311.168 99.5083 286.368 144.243 271.42 194.184C269.259 201.672 266.934 209.391 264.61 217.11C257.548 242.111 293.041 253.25 299.862 269.144C319.929 316.893 309.506 347.151 283.591 360.778C258.397 373.873 219.504 372.467 180.707 349.297C111.317 308.043 134.006 353.307 55.8222 323.532C36.4325 316.112 14.7549 364.778 -3.34468 304.9C-18.0798 256.228 -42.9783 306.264 -51.9253 266.348C-63.0701 217.259 1.13698 214.492 -99.1165 159.468C-218.481 93.9273 -85.4675 -78.865 -5.85975 -58.4828C-0.743506 -57.131 3.95072 -54.6909 8.15543 -51.5562C40.8978 -26.9333 -7.04822 26.2751 171.58 67.5448C206.329 75.5613 255.5 65.8403 284.111 83.0483Z" stroke="white" stroke-width="0.5"/>
<path d="M297.723 78.2557C326.531 95.4296 300.956 142.737 284.478 195.585C281.99 203.535 279.339 211.718 276.885 219.865C269.04 246.221 307.04 257.741 314.229 274.587C336.028 325.289 325.062 358.282 297.472 372.809C270.835 386.966 229.238 385.215 188.09 360.216C114.067 315.697 138.487 363.914 55.3505 332.557C34.6738 324.749 11.6014 377.111 -7.80773 313.191C-23.5187 261.233 -50.0092 315 -59.5978 272.553C-71.4873 220.341 -2.5666 217.775 -109.728 159.271C-237.324 89.6649 -93.5341 -93.7297 -10.2274 -71.9546C-4.87919 -70.4408 0.046995 -67.8371 4.71484 -64.3753C38.984 -37.9835 -13.1552 19.2005 177.612 62.4376C214.901 71.0307 267.327 60.1377 297.723 78.2557Z" stroke="white" stroke-width="0.5"/>
<path d="M311.568 73.6266C341.895 91.3501 315.777 141.394 297.733 196.952C294.919 205.366 292.138 213.976 289.555 222.553C280.928 250.264 321.203 261.999 329.19 279.927C352.755 333.779 341.374 369.079 312.177 384.9C284.063 399.923 239.96 397.792 196.297 371.195C117.804 323.181 143.792 374.582 55.4715 341.478C33.507 333.284 9.00722 389.145 -11.481 321.347C-28.168 266.103 -56.4132 323.831 -66.4804 278.62C-79.1147 223.285 -5.28256 220.886 -119.318 159.099C-254.947 85.3948 -100.58 -108.569 -13.5384 -85.2032C-7.79606 -83.7576 -2.60381 -80.7935 2.09816 -77.1348C38.0918 -49.0083 -18.4723 11.9902 184.502 57.5875C223.44 66.3024 279.155 54.4343 311.568 73.6266Z" stroke="white" stroke-width="0.5"/>
<path d="M325.18 68.8339C357.061 87.3054 330.366 139.888 310.758 198.155C307.814 206.998 304.706 216.072 301.797 225.111C292.421 254.374 335.169 266.292 343.524 285.173C368.855 342.174 356.863 379.816 326.223 396.699C296.468 412.819 250.055 410.274 203.612 381.719C120.485 330.441 148.402 384.76 54.8974 349.911C31.6118 341.132 5.94911 400.853 -15.8494 329.013C-33.5123 270.481 -63.3486 331.94 -74.0233 284.397C-87.2045 225.903 -8.82244 223.937 -129.57 158.636C-273.428 80.8663 -108.285 -123.7 -17.5104 -98.7441C-11.5361 -97.1349 -5.94976 -94.239 -0.981693 -90.2199C36.7365 -60.3594 -24.0548 4.41864 190.928 52.4111C232.176 61.5399 290.785 48.7649 325.18 68.8339Z" stroke="white" stroke-width="0.5"/>
<path d="M338.99 64.0072C372.425 83.2267 345.152 138.348 323.816 199.557C320.545 208.861 317.274 218.167 314.038 227.669C303.88 258.287 348.937 270.619 357.858 290.417C384.955 350.569 372.583 390.716 340.268 408.498C309.07 425.681 260.116 422.559 211.159 392.406C123.398 337.865 153.047 395.136 54.3924 358.738C29.8189 349.572 2.76222 412.989 -20.1488 337.073C-38.7875 275.256 -70.4136 340.479 -81.7298 290.403C-95.655 228.788 -12.5593 227.022 -140.181 158.438C-292.073 76.5698 -116.351 -138.565 -21.8438 -112.019C-15.6376 -110.246 -9.8193 -107.188 -4.38809 -102.842C35.0547 -71.2469 -30.1283 -2.45756 197.029 47.6983C240.749 57.0093 302.613 43.0615 338.99 64.0072Z" stroke="white" stroke-width="0.5"/>
<path d="M352.603 59.2144C387.556 78.9843 359.741 136.842 336.839 200.76C333.439 210.494 329.842 220.262 326.476 230.193C315.536 262.166 363.1 274.877 372.587 295.594C401.45 358.896 388.5 401.582 354.742 420.427C322.1 438.671 270.442 435.205 219.1 403.024C126.706 345.219 158.086 405.443 54.4452 367.266C28.5839 357.712 0.133077 424.826 -23.8904 344.834C-43.5051 279.73 -76.6889 348.881 -88.6808 296.076C-103.351 231.337 -15.3095 229.936 -149.875 157.674C-309.997 71.7414 -123.697 -153.962 -25.2581 -125.86C-18.6229 -123.958 -12.5726 -120.735 -7.10724 -116.193C34.0593 -82.8639 -35.548 -10.2609 203.782 42.0592C249.484 52.2468 314.474 37.5548 352.603 59.2144Z" stroke="white" stroke-width="0.5"/>
<path d="M366.413 54.3878C402.921 74.9056 374.724 135.268 350.061 201.929C346.334 212.126 342.41 222.357 338.915 232.718C327.193 266.045 377.031 278.972 387.119 300.806C417.748 367.257 404.187 412.284 368.985 432.192C334.866 451.302 280.734 447.653 226.844 413.678C129.816 352.608 163.127 415.75 54.1372 376.058C26.9882 366.118 -2.89084 436.73 -28.2246 352.697C-48.8152 284.306 -83.7872 357.222 -96.1903 302.05C-111.406 234.153 -18.8493 232.987 -160.092 157.409C-328.246 67.3767 -131.368 -168.895 -29.23 -139.401C-22.3628 -137.336 -15.8835 -133.984 -10.1862 -129.278C32.7041 -94.2149 -41.3282 -17.7975 210.209 36.8829C258.023 47.5185 326.303 31.8515 366.413 54.3878Z" stroke="white" stroke-width="0.5"/>
<path d="M380.026 49.5959C418.086 70.8602 389.115 133.796 363.118 203.33C359.065 213.99 355.012 224.65 351.19 235.473C338.686 270.155 391.031 283.463 401.684 306.214C434.045 375.618 420.138 423.347 383.296 444.351C347.733 464.524 291.061 460.297 234.656 424.725C132.994 360.392 168.037 426.487 54.0604 385.015C25.6243 374.687 -5.64876 448.996 -32.095 360.886C-53.4645 289.175 -90.2262 365.855 -103.27 308.151C-119.197 237.329 -21.9602 236.168 -170.077 157.306C-346.462 63.2088 -138.808 -183.666 -32.9367 -152.58C-25.6405 -150.387 -19.1271 -146.838 -13.0008 -142.003C31.6141 -105.205 -46.8091 -24.7768 217.098 32.0337C266.595 42.9879 337.932 26.1829 380.026 49.5959Z" stroke="white" stroke-width="0.5"/>
<path d="M393.837 44.7691C433.416 66.5845 404.099 132.221 376.142 204.534C371.96 215.623 367.58 226.745 363.398 237.834C350.111 273.871 404.765 287.592 415.984 311.262C450.109 383.816 435.592 433.887 397.109 455.987C360.103 477.222 300.925 472.617 241.937 435.051C135.805 367.223 172.614 436.468 53.2893 393.481C23.5654 382.767 -9.10095 460.772 -36.6604 368.586C-59.0058 293.588 -97.5223 374.23 -111.045 313.764C-127.716 239.818 -25.732 239.056 -180.559 156.679C-365.175 58.5177 -146.745 -198.96 -37.1406 -166.285C-29.6466 -164.124 -22.67 -160.25 -16.4755 -155.02C29.8639 -116.488 -52.9152 -31.8514 223.131 26.9255C275.134 38.2595 349.76 20.4795 393.837 44.7691Z" stroke="white" stroke-width="0.5"/>
<path d="M407.45 39.9764C448.58 62.5391 418.688 130.715 389.166 205.738C384.623 217.092 380.148 228.84 375.837 240.358C361.801 277.948 418.894 291.654 430.55 316.67C466.64 392.341 451.544 444.95 411.386 467.95C372.739 490.28 311.217 485.064 249.716 445.902C138.95 374.809 177.49 447.007 53.1791 402.24C22.1675 391.138 -11.9279 472.642 -40.5656 376.578C-63.887 298.294 -103.995 382.667 -118.159 319.669C-135.574 242.6 -28.6792 242.005 -190.613 156.182C-383.261 53.9211 -154.451 -214.091 -40.9155 -179.86C-33.1903 -177.537 -25.7832 -173.532 -19.3575 -168.14C28.7065 -127.873 -58.4985 -39.4222 229.72 21.5182C283.903 33.6948 361.622 14.9729 407.45 39.9764Z" stroke="white" stroke-width="0.5"/>
<path d="M421.293 35.3474C463.98 58.658 433.508 129.372 402.455 207.301C397.783 219.085 392.982 231.297 388.344 243.277C373.526 282.221 432.928 296.341 445.347 322.242C483.203 401.062 467.533 456.21 425.929 480.273C385.804 503.473 321.612 498.102 257.562 457.146C142.196 382.988 182.435 457.94 52.9735 411.625C20.6749 400.136 -14.8145 485.335 -44.5655 385.196C-68.8621 303.626 -110.725 391.96 -125.334 326.397C-143.296 246.17 -31.8513 246.008 -200.496 156.671C-401.375 50.3454 -161.755 -228.072 -44.519 -192.447C-36.3648 -189.995 -28.9585 -185.992 -22.0688 -180.272C27.7189 -138.271 -63.911 -46.007 236.515 17.2944C292.442 28.9664 373.45 9.26948 421.293 35.3474Z" stroke="white" stroke-width="0.5"/>
<path d="M459.643 327.29C537.32 488.048 400.622 554.973 265.074 467.636C145.075 390.213 187.277 468.282 52.5973 420.024C19.2079 408.114 -17.8726 497.047 -48.9331 392.862C-74.2064 308.005 -117.661 400.07 -132.912 331.976C-151.618 248.626 -35.4595 248.665 -210.781 156.01C-434.239 37.9386 -132.514 -284.753 -25.3806 -193.521C25.9688 -149.553 -69.7597 -53.9389 242.71 11.9553C300.98 24.2381 385.079 3.6009 434.906 30.5547C485.855 58.127 436.907 151.346 400.585 245.836C384.95 285.937 446.662 300.471 459.643 327.29Z" stroke="white" stroke-width="0.5"/>
</g>
</svg>
