<svg width="40" height="40" viewBox="0 0 40 40" fill="none" xmlns="http://www.w3.org/2000/svg">
<path d="M13.3307 4C8.18539 4 4 8.18927 4 13.3359V26.6693C4 31.8146 8.18927 36 13.3359 36H26.6693C31.8146 36 36 31.8107 36 26.6641V13.3307C36 8.18539 31.8107 4 26.6641 4H13.3307ZM29.3333 9.33333C30.0693 9.33333 30.6667 9.93066 30.6667 10.6667C30.6667 11.4027 30.0693 12 29.3333 12C28.5973 12 28 11.4027 28 10.6667C28 9.93066 28.5973 9.33333 29.3333 9.33333ZM20 12C24.412 12 28 15.588 28 20C28 24.412 24.412 28 20 28C15.588 28 12 24.412 12 20C12 15.588 15.588 12 20 12ZM20 14.6667C18.5855 14.6667 17.229 15.2286 16.2288 16.2288C15.2286 17.229 14.6667 18.5855 14.6667 20C14.6667 21.4145 15.2286 22.771 16.2288 23.7712C17.229 24.7714 18.5855 25.3333 20 25.3333C21.4145 25.3333 22.771 24.7714 23.7712 23.7712C24.7714 22.771 25.3333 21.4145 25.3333 20C25.3333 18.5855 24.7714 17.229 23.7712 16.2288C22.771 15.2286 21.4145 14.6667 20 14.6667Z" fill="#AAAAAA"/>
</svg>
