<svg width="16" height="16" viewBox="0 0 16 16" fill="none" xmlns="http://www.w3.org/2000/svg">
<path d="M8.00007 4.795C6.22664 4.795 4.79539 6.22625 4.79539 7.99968C4.79539 9.77312 6.22664 11.2044 8.00007 11.2044C9.77351 11.2044 11.2048 9.77312 11.2048 7.99968C11.2048 6.22625 9.77351 4.795 8.00007 4.795ZM8.00007 10.0825C6.8532 10.0825 5.91726 9.14656 5.91726 7.99968C5.91726 6.85281 6.8532 5.91687 8.00007 5.91687C9.14695 5.91687 10.0829 6.85281 10.0829 7.99968C10.0829 9.14656 9.14695 10.0825 8.00007 10.0825ZM11.336 3.91687C10.9219 3.91687 10.5876 4.25125 10.5876 4.66531C10.5876 5.07937 10.9219 5.41375 11.336 5.41375C11.7501 5.41375 12.0844 5.08093 12.0844 4.66531C12.0846 4.56699 12.0653 4.46961 12.0277 4.37875C11.9902 4.28789 11.935 4.20533 11.8655 4.13581C11.796 4.06628 11.7134 4.01116 11.6226 3.97359C11.5317 3.93602 11.4343 3.91675 11.336 3.91687ZM14.2469 7.99968C14.2469 7.13718 14.2548 6.2825 14.2063 5.42156C14.1579 4.42156 13.9298 3.53406 13.1985 2.80281C12.4657 2.07 11.5798 1.84343 10.5798 1.795C9.71726 1.74656 8.86257 1.75437 8.00164 1.75437C7.13914 1.75437 6.28445 1.74656 5.42351 1.795C4.42351 1.84343 3.53601 2.07156 2.80476 2.80281C2.07195 3.53562 1.84539 4.42156 1.79695 5.42156C1.74851 6.28406 1.75632 7.13875 1.75632 7.99968C1.75632 8.86062 1.74851 9.71687 1.79695 10.5778C1.84539 11.5778 2.07351 12.4653 2.80476 13.1966C3.53757 13.9294 4.42351 14.1559 5.42351 14.2044C6.28601 14.2528 7.1407 14.245 8.00164 14.245C8.86414 14.245 9.71882 14.2528 10.5798 14.2044C11.5798 14.1559 12.4673 13.9278 13.1985 13.1966C13.9313 12.4637 14.1579 11.5778 14.2063 10.5778C14.2563 9.71687 14.2469 8.86218 14.2469 7.99968ZM12.8719 11.6841C12.7579 11.9684 12.6204 12.1809 12.4001 12.3997C12.1798 12.62 11.9688 12.7575 11.6844 12.8716C10.8626 13.1981 8.91101 13.1247 8.00007 13.1247C7.08914 13.1247 5.13601 13.1981 4.31414 12.8731C4.02976 12.7591 3.81726 12.6216 3.59851 12.4012C3.3782 12.1809 3.2407 11.97 3.12664 11.6856C2.80164 10.8622 2.87507 8.91062 2.87507 7.99968C2.87507 7.08875 2.80164 5.13562 3.12664 4.31375C3.2407 4.02937 3.3782 3.81687 3.59851 3.59812C3.81882 3.37937 4.02976 3.24031 4.31414 3.12625C5.13601 2.80125 7.08914 2.87468 8.00007 2.87468C8.91101 2.87468 10.8641 2.80125 11.686 3.12625C11.9704 3.24031 12.1829 3.37781 12.4016 3.59812C12.6219 3.81843 12.7594 4.02937 12.8735 4.31375C13.1985 5.13562 13.1251 7.08875 13.1251 7.99968C13.1251 8.91062 13.1985 10.8622 12.8719 11.6841Z" fill="#3858FF"/>
</svg>
