<svg width="16" height="16" viewBox="0 0 16 16" fill="none" xmlns="http://www.w3.org/2000/svg">
<path fill-rule="evenodd" clip-rule="evenodd" d="M6.28616 5.97901H8.76216V7.21234C9.11883 6.50301 10.0335 5.86567 11.4075 5.86567C14.0415 5.86567 14.6668 7.27767 14.6668 9.86834V14.6663H12.0002V10.4583C12.0002 8.98301 11.6435 8.15101 10.7355 8.15101C9.47616 8.15101 8.95283 9.04767 8.95283 10.4577V14.6663H6.28616V5.97901ZM1.7135 14.553H4.38016V5.86567H1.7135V14.553ZM4.76216 3.03301C4.76226 3.25652 4.71793 3.47783 4.63175 3.68407C4.54557 3.8903 4.41926 4.07735 4.26016 4.23434C3.93776 4.55476 3.50137 4.73411 3.04683 4.73301C2.59309 4.7327 2.1577 4.55381 1.83483 4.23501C1.6763 4.07748 1.55042 3.89022 1.46439 3.68396C1.37836 3.4777 1.33388 3.25649 1.3335 3.03301C1.3335 2.58167 1.5135 2.14967 1.8355 1.83101C2.15809 1.51178 2.59366 1.33281 3.0475 1.33301C3.50216 1.33301 3.93816 1.51234 4.26016 1.83101C4.5815 2.14967 4.76216 2.58167 4.76216 3.03301Z" fill="#3858FF"/>
</svg>
