<svg width="40" height="40" viewBox="0 0 40 40" fill="none" xmlns="http://www.w3.org/2000/svg">
<path d="M32 5.33331H7.99998C6.52665 5.33331 5.33331 6.52665 5.33331 7.99998V32C5.33331 33.4733 6.52665 34.6666 7.99998 34.6666H32C33.4733 34.6666 34.6666 33.4733 34.6666 32V7.99998C34.6666 6.52665 33.4733 5.33331 32 5.33331ZM14.6053 29.3333H10.672V16.6773H14.6053V29.3333ZM12.5986 14.868C11.3306 14.868 10.3053 13.84 10.3053 12.5746C10.3053 11.3093 11.332 10.2826 12.5986 10.2826C13.8626 10.2826 14.8906 11.3106 14.8906 12.5746C14.8906 13.84 13.8626 14.868 12.5986 14.868ZM29.3386 29.3333H25.408V23.1786C25.408 21.7106 25.3813 19.8226 23.364 19.8226C21.3173 19.8226 21.0026 21.4213 21.0026 23.072V29.3333H17.072V16.6773H20.8453V18.4066H20.8986C21.424 17.412 22.7066 16.3626 24.62 16.3626C28.6026 16.3626 29.3386 18.984 29.3386 22.392V29.3333Z" fill="#AAAAAA"/>
</svg>
