<svg width="40" height="40" viewBox="0 0 40 40" fill="none" xmlns="http://www.w3.org/2000/svg">
<path d="M20 4C11.164 4 4 11.164 4 20C4 28.836 11.164 36 20 36C28.836 36 36 28.836 36 20C36 11.164 28.836 4 20 4ZM28.6187 16.7133C28.6267 16.8907 28.6307 17.0667 28.6307 17.2427C28.6307 22.6667 24.504 28.9173 16.956 28.9173C14.6373 28.9173 12.4813 28.2387 10.6667 27.0733C10.988 27.112 11.3147 27.1293 11.6467 27.1293C13.5707 27.1293 15.3387 26.4747 16.7413 25.372C14.9453 25.3387 13.4293 24.152 12.908 22.5227C13.1587 22.5707 13.416 22.596 13.68 22.596C14.0547 22.596 14.4187 22.5453 14.7613 22.452C12.884 22.076 11.4693 20.4173 11.4693 18.4293C11.4693 18.412 11.4693 18.3947 11.4693 18.3773C12.0227 18.6853 12.6547 18.8693 13.328 18.8907C12.228 18.156 11.5027 16.8987 11.5027 15.476C11.5027 14.7227 11.704 14.0173 12.0573 13.4133C14.0813 15.896 17.1053 17.5307 20.5147 17.7013C20.4453 17.4013 20.4093 17.088 20.4093 16.7667C20.4093 14.5013 22.2467 12.6627 24.512 12.6627C25.692 12.6627 26.7587 13.1613 27.5067 13.9587C28.4413 13.7733 29.32 13.4333 30.1133 12.9627C29.8067 13.9213 29.156 14.724 28.308 15.2333C29.1373 15.1347 29.928 14.9147 30.6653 14.588C30.1173 15.412 29.4227 16.1333 28.6187 16.7133Z" fill="#AAAAAA"/>
</svg>
