<svg width="16" height="16" viewBox="0 0 16 16" fill="none" xmlns="http://www.w3.org/2000/svg">
<path d="M5.96 12.4697C6.80457 12.475 7.64179 12.3125 8.4231 11.9918C9.20441 11.671 9.91425 11.1983 10.5115 10.6011C11.1087 10.0039 11.5814 9.29407 11.9021 8.51277C12.2229 7.73146 12.3853 6.89424 12.38 6.04967V5.75467C12.8178 5.43391 13.1967 5.03975 13.5 4.58967C13.0878 4.76996 12.6516 4.88954 12.205 4.94467C12.6785 4.66256 13.0337 4.2185 13.205 3.69467C12.7638 3.95939 12.2799 4.14548 11.775 4.24467C11.435 3.88235 10.985 3.64219 10.4947 3.56136C10.0045 3.48052 9.50122 3.56352 9.06287 3.79749C8.62452 4.03147 8.27549 4.40339 8.0698 4.85571C7.86411 5.30802 7.81322 5.81552 7.925 6.29967C7.02801 6.25564 6.15036 6.02318 5.34918 5.61742C4.548 5.21166 3.84127 4.64171 3.275 3.94467C2.98946 4.44025 2.90291 5.02583 3.03288 5.58283C3.16285 6.13983 3.49962 6.62663 3.975 6.94467C3.62431 6.93114 3.28173 6.83522 2.975 6.66467V6.68967C2.97188 7.20758 3.14636 7.71093 3.46935 8.1158C3.79234 8.52068 4.24434 8.80263 4.75 8.91467C4.42382 9.0024 4.08215 9.01606 3.75 8.95467C3.89639 9.39636 4.17584 9.78195 4.55002 10.0586C4.9242 10.3352 5.3748 10.4892 5.84 10.4997C5.04461 11.1399 4.05605 11.4924 3.035 11.4997C2.85598 11.4945 2.67737 11.4795 2.5 11.4547C3.53348 12.1131 4.7346 12.4603 5.96 12.4547" fill="#3858FF"/>
</svg>
