<svg width="30" height="30" viewBox="0 0 30 30" fill="none" xmlns="http://www.w3.org/2000/svg">
<path d="M27 0.336792H2.99998C1.52665 0.336792 0.333313 1.53013 0.333313 3.00346V27.0035C0.333313 28.4768 1.52665 29.6701 2.99998 29.6701H27C28.4733 29.6701 29.6666 28.4768 29.6666 27.0035V3.00346C29.6666 1.53013 28.4733 0.336792 27 0.336792ZM9.60531 24.3368H5.67198V11.6808H9.60531V24.3368ZM7.59865 9.87146C6.33065 9.87146 5.30531 8.84346 5.30531 7.57813C5.30531 6.31279 6.33198 5.28613 7.59865 5.28613C8.86265 5.28613 9.89065 6.31413 9.89065 7.57813C9.89065 8.84346 8.86265 9.87146 7.59865 9.87146ZM24.3386 24.3368H20.408V18.1821C20.408 16.7141 20.3813 14.8261 18.364 14.8261C16.3173 14.8261 16.0026 16.4248 16.0026 18.0755V24.3368H12.072V11.6808H15.8453V13.4101H15.8986C16.424 12.4155 17.7066 11.3661 19.62 11.3661C23.6026 11.3661 24.3386 13.9875 24.3386 17.3955V24.3368Z" fill="#AAAAAA"/>
</svg>
