<svg width="32" height="33" viewBox="0 0 32 33" fill="none" xmlns="http://www.w3.org/2000/svg">
<path d="M9.33073 0.00341797C4.18539 0.00341797 0 4.19269 0 9.33935V22.6727C0 27.818 4.18927 32.0034 9.33593 32.0034H22.6693C27.8146 32.0034 32 27.8141 32 22.6675V9.33414C32 4.18881 27.8107 0.00341797 22.6641 0.00341797H9.33073ZM25.3333 5.33675C26.0693 5.33675 26.6667 5.93408 26.6667 6.67008C26.6667 7.40608 26.0693 8.00342 25.3333 8.00342C24.5973 8.00342 24 7.40608 24 6.67008C24 5.93408 24.5973 5.33675 25.3333 5.33675ZM16 8.00342C20.412 8.00342 24 11.5914 24 16.0034C24 20.4154 20.412 24.0034 16 24.0034C11.588 24.0034 8 20.4154 8 16.0034C8 11.5914 11.588 8.00342 16 8.00342ZM16 10.6701C14.5855 10.6701 13.229 11.232 12.2288 12.2322C11.2286 13.2324 10.6667 14.5889 10.6667 16.0034C10.6667 17.4179 11.2286 18.7745 12.2288 19.7746C13.229 20.7748 14.5855 21.3367 16 21.3367C17.4145 21.3367 18.771 20.7748 19.7712 19.7746C20.7714 18.7745 21.3333 17.4179 21.3333 16.0034C21.3333 14.5889 20.7714 13.2324 19.7712 12.2322C18.771 11.232 17.4145 10.6701 16 10.6701Z" fill="#AAAAAA"/>
</svg>
