<svg width="32" height="33" viewBox="0 0 32 33" fill="none" xmlns="http://www.w3.org/2000/svg">
<path d="M16 0.00341797C7.164 0.00341797 0 7.16742 0 16.0034C0 24.8394 7.164 32.0034 16 32.0034C24.836 32.0034 32 24.8394 32 16.0034C32 7.16742 24.836 0.00341797 16 0.00341797ZM24.6187 12.7167C24.6267 12.8941 24.6307 13.0701 24.6307 13.2461C24.6307 18.6701 20.504 24.9207 12.956 24.9207C10.6373 24.9207 8.48133 24.2421 6.66666 23.0767C6.988 23.1154 7.31466 23.1327 7.64666 23.1327C9.57066 23.1327 11.3387 22.4781 12.7413 21.3754C10.9453 21.3421 9.42933 20.1554 8.908 18.5261C9.15866 18.5741 9.416 18.5994 9.68 18.5994C10.0547 18.5994 10.4187 18.5487 10.7613 18.4554C8.884 18.0794 7.46933 16.4207 7.46933 14.4327C7.46933 14.4154 7.46933 14.3981 7.46933 14.3807C8.02266 14.6887 8.65466 14.8727 9.328 14.8941C8.228 14.1594 7.50266 12.9021 7.50266 11.4794C7.50266 10.7261 7.704 10.0207 8.05733 9.41675C10.0813 11.8994 13.1053 13.5341 16.5147 13.7047C16.4453 13.4047 16.4093 13.0914 16.4093 12.7701C16.4093 10.5047 18.2467 8.66608 20.512 8.66608C21.692 8.66608 22.7587 9.16475 23.5067 9.96208C24.4413 9.77675 25.32 9.43675 26.1133 8.96608C25.8067 9.92475 25.156 10.7274 24.308 11.2367C25.1373 11.1381 25.928 10.9181 26.6653 10.5914C26.1173 11.4154 25.4227 12.1367 24.6187 12.7167Z" fill="#AAAAAA"/>
</svg>
